{"asset":{"generator":"Khronos glTF Spline I/O v0.0.1","version":"2.0"},"scenes":[{"nodes":[0]}],"nodes":[{"name":"Animated Rings","children":[1,2,3,4,5,6,7,8,9,10,11,12]},{"name":"Cube","matrix":[1,0,0,0,0,1,0,0,0,0,1,0,0,-845.8892906184124,-569,1],"mesh":0},{"name":"Torus 3","matrix":[1,-2.465190328815662e-32,2.449293598294707e-16,0,2.449293598294708e-16,2.220446049250314e-16,-1.0000000000000004,0,-2.465190328815663e-32,1.0000000000000004,2.220446049250314e-16,0,-3.944304526105059e-31,4.166489861874453,-479.21,1],"mesh":1},{"name":"Torus 2","matrix":[1,-2.465190328815662e-32,2.449293598294707e-16,0,2.449293598294708e-16,2.220446049250314e-16,-1.0000000000000004,0,-2.465190328815663e-32,1.0000000000000004,2.220446049250314e-16,0,7.888609052210118e-31,95.34603266354975,-237.99999999999997,1],"mesh":2},{"name":"Torus","matrix":[1,-2.465190328815662e-32,2.449293598294707e-16,0,2.449293598294708e-16,2.220446049250314e-16,-1.0000000000000004,0,-2.465190328815663e-32,1.0000000000000004,2.220446049250314e-16,0,0,38.089495153121845,2.3092638912203256e-14,1],"mesh":3},{"name":"Sphere 3","matrix":[1,0,0,0,0,1,0,0,0,0,1,0,0,-22.436933431691877,-478,1],"mesh":4},{"name":"Sphere 2","matrix":[1,0,0,0,0,1,0,0,0,0,1,0,0,30.56306656830879,-239,1],"mesh":5},{"name":"Sphere","matrix":[1,0,0,0,0,1,0,0,0,0,1,0,0,142.16915112855935,0,1],"mesh":6},{"name":"Camera","camera":0,"translation":[868.2462573374366,320.8860903659331,81.98646891910363],"rotation":[-0.1346027686078543,0.5578661025651936,0.09227947542754221,0.8137272299159215],"children":[13,14]},{"name":"Empty Object 2","matrix":[1,0,0,0,0,1,0,0,0,0,1,0,0,0.4999999999999787,0,1],"children":[15,16]},{"name":"Empty Object 3","matrix":[1,0,0,0,0,1,0,0,0,0,1,0,0,0.4999999999999787,-478,1],"children":[17,18]},{"name":"Empty Object","matrix":[1,0,0,0,0,1,0,0,0,0,1,0,0,0.4999999999999787,-239,1],"children":[19,20]},{"name":"Default Camera","camera":1,"translation":[834.4339691120699,514.5987735913736,-198.83664815719214],"rotation":[-0.1680805689077256,0.7501308637793268,0.2085310923338869,0.604621694195116]},{"name":"Point Light","translation":[169.52534353554438,326.4760114017372,207.42104540611126],"extensions":{"KHR_lights_punctual":{"light":0}}},{"name":"Default Directional Light","translation":[850000,1300000,1000000],"rotation":[-0.45895513091666534,0.1367267597249462,-0.25064115022945466,0.8413352451859125],"extensions":{"KHR_lights_punctual":{"light":1}}},{"name":"Rectangle","matrix":[1,0,0,0,0,2.220446049250313e-16,-1,0,0,1,2.220446049250313e-16,0,0,-100.49999999999997,0,1],"mesh":7},{"name":"Empty Object","matrix":[1,0,0,0,0,1,0,0,0,0,1,0,0,-75.49999999999997,0,1],"children":[21]},{"name":"Rectangle","matrix":[1,0,0,0,0,2.220446049250313e-16,-1,0,0,1,2.220446049250313e-16,0,0,-100.49999999999997,0,1],"mesh":8},{"name":"Empty Object","matrix":[1,0,0,0,0,1,0,0,0,0,1,0,0,-74.99999999999997,0,1],"children":[22]},{"name":"Rectangle","matrix":[1,0,0,0,0,2.220446049250313e-16,-1,0,0,1,2.220446049250313e-16,0,0,-100.49999999999997,0,1],"mesh":9},{"name":"Empty Object","matrix":[1,0,0,0,0,1,0,0,0,0,1,0,0,-73.49999999999997,0,1],"children":[23]},{"name":"Cylinder","matrix":[1,0,0,0,0,1,0,0,0,0,1,0,0,0,0,1],"mesh":10},{"name":"Cylinder","matrix":[1,0,0,0,0,1,0,0,0,0,1,0,0,0,0,1],"mesh":11},{"name":"Cylinder","matrix":[1,0,0,0,0,1,0,0,0,0,1,0,0,0,0,1],"mesh":12}],"cameras":[{"type":"orthographic","orthographic":{"xmag":2233,"ymag":1134,"zfar":50000,"znear":-50000}},{"type":"orthographic","orthographic":{"xmag":2233,"ymag":1134,"zfar":50000,"znear":-50000}}],"meshes":[{"primitives":[{"attributes":{"POSITION":1,"NORMAL":2,"TEXCOORD_0":3},"indices":0}]},{"primitives":[{"attributes":{"POSITION":5,"NORMAL":6,"TEXCOORD_0":7},"indices":4}]},{"primitives":[{"attributes":{"POSITION":9,"NORMAL":10,"TEXCOORD_0":11},"indices":8}]},{"primitives":[{"attributes":{"POSITION":13,"NORMAL":14,"TEXCOORD_0":15},"indices":12}]},{"primitives":[{"attributes":{"POSITION":17,"NORMAL":18,"TEXCOORD_0":19},"indices":16}]},{"primitives":[{"attributes":{"POSITION":21,"NORMAL":22,"TEXCOORD_0":23},"indices":20}]},{"primitives":[{"attributes":{"POSITION":25,"NORMAL":26,"TEXCOORD_0":27},"indices":24}]},{"primitives":[{"attributes":{"POSITION":29,"NORMAL":30,"TEXCOORD_0":31},"indices":28}]},{"primitives":[{"attributes":{"POSITION":33,"NORMAL":34,"TEXCOORD_0":35},"indices":32}]},{"primitives":[{"attributes":{"POSITION":37,"NORMAL":38,"TEXCOORD_0":39},"indices":36}]},{"primitives":[{"attributes":{"POSITION":41,"NORMAL":42,"TEXCOORD_0":43},"indices":40}]},{"primitives":[{"attributes":{"POSITION":45,"NORMAL":46,"TEXCOORD_0":47},"indices":44}]},{"primitives":[{"attributes":{"POSITION":49,"NORMAL":50,"TEXCOORD_0":51},"indices":48}]}],"buffers":[{"uri":"data:application/octet-stream;base64,","byteLength":840},{"uri":"data:application/octet-stream;base64,","byteLength":92448},{"uri":"data:application/octet-stream;base64,","byteLength":92448},{"uri":"data:application/octet-stream;base64,","byteLength":92448},{"uri":"data:application/octet-stream;base64,","byteLength":183584},{"uri":"data:application/octet-stream;base64,","byteLength":183584},{"uri":"data:application/octet-stream;base64,","byteLength":183584},{"uri":"data:application/octet-stream;base64,","byteLength":44000},{"uri":"data:application/octet-stream;base64,","byteLength":44000},{"uri":"data:application/octet-stream;base64,","byteLength":44000},{"uri":"data:application/octet-stream;base64,","byteLength":113920},{"uri":"data:application/octet-stream;base64,","byteLength":113920},{"uri":"data:application/octet-stream;base64,","byteLength":113920}],"bufferViews":[{"buffer":0,"byteOffset":0,"byteLength":72,"target":34963},{"buffer":0,"byteOffset":72,"byteLength":288,"target":34962},{"buffer":0,"byteOffset":360,"byteLength":288,"target":34962},{"buffer":0,"byteOffset":648,"byteLength":192,"target":34962},{"buffer":1,"byteOffset":0,"byteLength":23808,"target":34963},{"buffer":1,"byteOffset":23808,"byteLength":25740,"target":34962},{"buffer":1,"byteOffset":49548,"byteLength":25740,"target":34962},{"buffer":1,"byteOffset":75288,"byteLength":17160,"target":34962},{"buffer":2,"byteOffset":0,"byteLength":23808,"target":34963},{"buffer":2,"byteOffset":23808,"byteLength":25740,"target":34962},{"buffer":2,"byteOffset":49548,"byteLength":25740,"target":34962},{"buffer":2,"byteOffset":75288,"byteLength":17160,"target":34962},{"buffer":3,"byteOffset":0,"byteLength":23808,"target":34963},{"buffer":3,"byteOffset":23808,"byteLength":25740,"target":34962},{"buffer":3,"byteOffset":49548,"byteLength":25740,"target":34962},{"buffer":3,"byteOffset":75288,"byteLength":17160,"target":34962},{"buffer":4,"byteOffset":0,"byteLength":48384,"target":34963},{"buffer":4,"byteOffset":48384,"byteLength":50700,"target":34962},{"buffer":4,"byteOffset":99084,"byteLength":50700,"target":34962},{"buffer":4,"byteOffset":149784,"byteLength":33800,"target":34962},{"buffer":5,"byteOffset":0,"byteLength":48384,"target":34963},{"buffer":5,"byteOffset":48384,"byteLength":50700,"target":34962},{"buffer":5,"byteOffset":99084,"byteLength":50700,"target":34962},{"buffer":5,"byteOffset":149784,"byteLength":33800,"target":34962},{"buffer":6,"byteOffset":0,"byteLength":48384,"target":34963},{"buffer":6,"byteOffset":48384,"byteLength":50700,"target":34962},{"buffer":6,"byteOffset":99084,"byteLength":50700,"target":34962},{"buffer":6,"byteOffset":149784,"byteLength":33800,"target":34962},{"buffer":7,"byteOffset":0,"byteLength":12000,"target":34963},{"buffer":7,"byteOffset":12000,"byteLength":12000,"target":34962},{"buffer":7,"byteOffset":24000,"byteLength":12000,"target":34962},{"buffer":7,"byteOffset":36000,"byteLength":8000,"target":34962},{"buffer":8,"byteOffset":0,"byteLength":12000,"target":34963},{"buffer":8,"byteOffset":12000,"byteLength":12000,"target":34962},{"buffer":8,"byteOffset":24000,"byteLength":12000,"target":34962},{"buffer":8,"byteOffset":36000,"byteLength":8000,"target":34962},{"buffer":9,"byteOffset":0,"byteLength":12000,"target":34963},{"buffer":9,"byteOffset":12000,"byteLength":12000,"target":34962},{"buffer":9,"byteOffset":24000,"byteLength":12000,"target":34962},{"buffer":9,"byteOffset":36000,"byteLength":8000,"target":34962},{"buffer":10,"byteOffset":0,"byteLength":30720,"target":34963},{"buffer":10,"byteOffset":30720,"byteLength":31200,"target":34962},{"buffer":10,"byteOffset":61920,"byteLength":31200,"target":34962},{"buffer":10,"byteOffset":93120,"byteLength":20800,"target":34962},{"buffer":11,"byteOffset":0,"byteLength":30720,"target":34963},{"buffer":11,"byteOffset":30720,"byteLength":31200,"target":34962},{"buffer":11,"byteOffset":61920,"byteLength":31200,"target":34962},{"buffer":11,"byteOffset":93120,"byteLength":20800,"target":34962},{"buffer":12,"byteOffset":0,"byteLength":30720,"target":34963},{"buffer":12,"byteOffset":30720,"byteLength":31200,"target":34962},{"buffer":12,"byteOffset":61920,"byteLength":31200,"target":34962},{"buffer":12,"byteOffset":93120,"byteLength":20800,"target":34962}],"accessors":[{"bufferView":0,"byteOffset":0,"componentType":5123,"count":36,"type":"SCALAR","min":[0],"max":[23]},{"bufferView":1,"byteOffset":0,"componentType":5126,"count":24,"type":"VEC3","min":[-2726,-745.5,-2516],"max":[2726,745.5,2516]},{"bufferView":2,"byteOffset":0,"componentType":5126,"count":24,"type":"VEC3","min":[-1,-1,-1],"max":[1,1,1]},{"bufferView":3,"byteOffset":0,"componentType":5126,"count":24,"type":"VEC2","min":[0,0],"max":[1,1]},{"bufferView":4,"byteOffset":0,"componentType":5123,"count":11904,"type":"SCALAR","min":[1],"max":[2143]},{"bufferView":5,"byteOffset":0,"componentType":5126,"count":2145,"type":"VEC3","min":[-116.1024169921875,26.291261672973633,-5.500500202178955],"max":[5.5,120.5,5.500500202178955]},{"bufferView":6,"byteOffset":0,"componentType":5126,"count":2145,"type":"VEC3","min":[-0.9964028596878052,-1,-1],"max":[1,1,1]},{"bufferView":7,"byteOffset":0,"componentType":5126,"count":2145,"type":"VEC2","min":[0,0],"max":[1,1]},{"bufferView":8,"byteOffset":0,"componentType":5123,"count":11904,"type":"SCALAR","min":[1],"max":[2143]},{"bufferView":9,"byteOffset":0,"componentType":5126,"count":2145,"type":"VEC3","min":[-116.1024169921875,26.291261672973633,-5.500500202178955],"max":[5.5,120.5,5.500500202178955]},{"bufferView":10,"byteOffset":0,"componentType":5126,"count":2145,"type":"VEC3","min":[-0.9964028596878052,-1,-1],"max":[1,1,1]},{"bufferView":11,"byteOffset":0,"componentType":5126,"count":2145,"type":"VEC2","min":[0,0],"max":[1,1]},{"bufferView":12,"byteOffset":0,"componentType":5123,"count":11904,"type":"SCALAR","min":[1],"max":[2143]},{"bufferView":13,"byteOffset":0,"componentType":5126,"count":2145,"type":"VEC3","min":[-116.1024169921875,26.291261672973633,-5.500500202178955],"max":[5.5,120.5,5.500500202178955]},{"bufferView":14,"byteOffset":0,"componentType":5126,"count":2145,"type":"VEC3","min":[-0.9964028596878052,-1,-1],"max":[1,1,1]},{"bufferView":15,"byteOffset":0,"componentType":5126,"count":2145,"type":"VEC2","min":[0,0],"max":[1,1]},{"bufferView":16,"byteOffset":0,"componentType":5123,"count":24192,"type":"SCALAR","min":[0],"max":[4224]},{"bufferView":17,"byteOffset":0,"componentType":5126,"count":4225,"type":"VEC3","min":[-37.5,-37.5,-37.5],"max":[37.5,37.5,37.5]},{"bufferView":18,"byteOffset":0,"componentType":5126,"count":4225,"type":"VEC3","min":[-1,-1,-1],"max":[1,1,1]},{"bufferView":19,"byteOffset":0,"componentType":5126,"count":4225,"type":"VEC2","min":[-0.0078125,0],"max":[1.0078125,1]},{"bufferView":20,"byteOffset":0,"componentType":5123,"count":24192,"type":"SCALAR","min":[0],"max":[4224]},{"bufferView":21,"byteOffset":0,"componentType":5126,"count":4225,"type":"VEC3","min":[-24.5,-24.5,-24.5],"max":[24.5,24.5,24.5]},{"bufferView":22,"byteOffset":0,"componentType":5126,"count":4225,"type":"VEC3","min":[-1,-1,-1],"max":[1,1,1]},{"bufferView":23,"byteOffset":0,"componentType":5126,"count":4225,"type":"VEC2","min":[-0.0078125,0],"max":[1.0078125,1]},{"bufferView":24,"byteOffset":0,"componentType":5123,"count":24192,"type":"SCALAR","min":[0],"max":[4224]},{"bufferView":25,"byteOffset":0,"componentType":5126,"count":4225,"type":"VEC3","min":[-50.5,-50.5,-50.5],"max":[50.5,50.5,50.5]},{"bufferView":26,"byteOffset":0,"componentType":5126,"count":4225,"type":"VEC3","min":[-1,-1,-1],"max":[1,1,1]},{"bufferView":27,"byteOffset":0,"componentType":5126,"count":4225,"type":"VEC2","min":[-0.0078125,0],"max":[1.0078125,1]},{"bufferView":28,"byteOffset":0,"componentType":5125,"count":3000,"type":"SCALAR","min":[0],"max":[3]},{"bufferView":29,"byteOffset":0,"componentType":5126,"count":1000,"type":"VEC3","min":[-119.5,-119.5,0],"max":[119.5,119.5,0]},{"bufferView":30,"byteOffset":0,"componentType":5126,"count":1000,"type":"VEC3","min":[0,0,0],"max":[0,0,1]},{"bufferView":31,"byteOffset":0,"componentType":5126,"count":1000,"type":"VEC2","min":[0,0],"max":[1,1]},{"bufferView":32,"byteOffset":0,"componentType":5125,"count":3000,"type":"SCALAR","min":[0],"max":[3]},{"bufferView":33,"byteOffset":0,"componentType":5126,"count":1000,"type":"VEC3","min":[-119.5,-119.5,0],"max":[119.5,119.5,0]},{"bufferView":34,"byteOffset":0,"componentType":5126,"count":1000,"type":"VEC3","min":[0,0,0],"max":[0,0,1]},{"bufferView":35,"byteOffset":0,"componentType":5126,"count":1000,"type":"VEC2","min":[0,0],"max":[1,1]},{"bufferView":36,"byteOffset":0,"componentType":5125,"count":3000,"type":"SCALAR","min":[0],"max":[3]},{"bufferView":37,"byteOffset":0,"componentType":5126,"count":1000,"type":"VEC3","min":[-119.5,-119.5,0],"max":[119.5,119.5,0]},{"bufferView":38,"byteOffset":0,"componentType":5126,"count":1000,"type":"VEC3","min":[0,0,0],"max":[0,0,1]},{"bufferView":39,"byteOffset":0,"componentType":5126,"count":1000,"type":"VEC2","min":[0,0],"max":[1,1]},{"bufferView":40,"byteOffset":0,"componentType":5123,"count":15360,"type":"SCALAR","min":[0],"max":[2599]},{"bufferView":41,"byteOffset":0,"componentType":5126,"count":2600,"type":"VEC3","min":[-92,-24,-92],"max":[92,24,92]},{"bufferView":42,"byteOffset":0,"componentType":5126,"count":2600,"type":"VEC3","min":[-1,-1,-1],"max":[1,1,1]},{"bufferView":43,"byteOffset":0,"componentType":5126,"count":2600,"type":"VEC2","min":[0,0],"max":[1,1]},{"bufferView":44,"byteOffset":0,"componentType":5123,"count":15360,"type":"SCALAR","min":[0],"max":[2599]},{"bufferView":45,"byteOffset":0,"componentType":5126,"count":2600,"type":"VEC3","min":[-92,-24.5,-92],"max":[92,24.5,92]},{"bufferView":46,"byteOffset":0,"componentType":5126,"count":2600,"type":"VEC3","min":[-1,-1,-1],"max":[1,1,1]},{"bufferView":47,"byteOffset":0,"componentType":5126,"count":2600,"type":"VEC2","min":[0,0],"max":[1,1]},{"bufferView":48,"byteOffset":0,"componentType":5123,"count":15360,"type":"SCALAR","min":[0],"max":[2599]},{"bufferView":49,"byteOffset":0,"componentType":5126,"count":2600,"type":"VEC3","min":[-92,-26,-92],"max":[92,26,92]},{"bufferView":50,"byteOffset":0,"componentType":5126,"count":2600,"type":"VEC3","min":[-1,-1,-1],"max":[1,1,1]},{"bufferView":51,"byteOffset":0,"componentType":5126,"count":2600,"type":"VEC2","min":[0,0],"max":[1,1]}],"extensions":{"KHR_lights_punctual":{"lights":[{"type":"point","name":"Point Light","color":[1,1,1],"intensity":0.7,"range":2000},{"type":"directional","name":"Default Directional Light","color":[1,1,1],"intensity":0.75}]}},"extensionsUsed":["KHR_lights_punctual"]}