<?xml version="1.0" encoding="utf-8"?>
<!-- Generator: Adobe Illustrator 24.1.2, SVG Export Plug-In . SVG Version: 6.00 Build 0)  -->
<svg version="1.1" id="Warstwa_3" xmlns="http://www.w3.org/2000/svg" xmlns:xlink="http://www.w3.org/1999/xlink" x="0px" y="0px"
	 viewBox="0 0 430 430" style="enable-background:new 0 0 430 430;" xml:space="preserve">
<style type="text/css">
	.st0{fill:#f49cc8;}
	.st1{fill:#f49cc8;}
	.st2{fill:#f49cc8;}
	.st3{fill:none;stroke:#f49cc8;stroke-width:12;stroke-linecap:round;stroke-linejoin:round;stroke-miterlimit:10;}
</style>
<g>
	<path class="st0" d="M334.41,121.39c0-0.07-0.01-0.13-0.01-0.2c-0.02-0.26-0.05-0.51-0.09-0.76c0,0,0,0,0,0
		c-0.05-0.26-0.12-0.5-0.21-0.75c-0.02-0.06-0.04-0.12-0.06-0.18c-0.09-0.24-0.19-0.47-0.3-0.69c0-0.01-0.01-0.02-0.01-0.03
		c-0.12-0.23-0.27-0.45-0.42-0.67c-0.04-0.05-0.07-0.1-0.11-0.15c-0.16-0.21-0.33-0.42-0.52-0.61l-66.72-66.72
		c-0.19-0.19-0.39-0.36-0.6-0.52c-0.05-0.04-0.11-0.08-0.16-0.12c-0.21-0.15-0.43-0.29-0.66-0.41c-0.01-0.01-0.03-0.01-0.04-0.02
		c-0.22-0.11-0.45-0.21-0.68-0.3c-0.06-0.02-0.12-0.04-0.18-0.07c-0.25-0.08-0.49-0.16-0.75-0.21c0,0,0,0,0,0
		c-0.25-0.05-0.51-0.08-0.77-0.1c-0.07,0-0.13-0.01-0.2-0.01c-0.07,0-0.14-0.01-0.2-0.01H101.58c-3.31,0-6,2.69-6,6v320.24
		c0,3.31,2.69,6,6,6h226.84c3.31,0,6-2.69,6-6V121.6C334.42,121.53,334.41,121.46,334.41,121.39z M313.93,115.6H267.7V69.37
		L313.93,115.6z M107.58,369.12V60.88H255.7v60.72c0,3.31,2.69,6,6,6h60.72v241.52H107.58z"/>
	<g>
		<path class="st1" d="M187.7,207.66c-17.49,0-31.73-14.23-31.73-31.73s14.23-31.73,31.73-31.73c7.56,0,14.89,2.71,20.63,7.62
			c2.52,2.16,2.81,5.94,0.65,8.46c-2.16,2.52-5.94,2.81-8.46,0.65c-3.56-3.05-8.12-4.74-12.82-4.74c-10.88,0-19.73,8.85-19.73,19.73
			s8.85,19.73,19.73,19.73c4.7,0,9.26-1.68,12.82-4.73c2.52-2.16,6.3-1.86,8.46,0.65c2.16,2.52,1.86,6.3-0.65,8.46
			C202.58,204.95,195.26,207.66,187.7,207.66z"/>
		<path class="st1" d="M246.44,207.35c-2.4,0-4.57-1.43-5.52-3.64l-21.6-50.43c-1.3-3.05,0.11-6.57,3.15-7.88
			c3.05-1.3,6.57,0.11,7.88,3.15l16.08,37.55l16.08-37.55c1.3-3.05,4.83-4.46,7.88-3.15c3.05,1.3,4.46,4.83,3.15,7.88l-21.6,50.43
			C251.01,205.92,248.84,207.35,246.44,207.35z"/>
	</g>
	<g>
		<path class="st0" d="M290.03,252.3H139.97c-3.31,0-6-2.69-6-6s2.69-6,6-6h150.06c3.31,0,6,2.69,6,6S293.34,252.3,290.03,252.3z"/>
		<path class="st0" d="M290.03,292.72H139.97c-3.31,0-6-2.69-6-6s2.69-6,6-6h150.06c3.31,0,6,2.69,6,6S293.34,292.72,290.03,292.72z
			"/>
		<path class="st0" d="M217.19,333.13h-77.22c-3.31,0-6-2.69-6-6s2.69-6,6-6h77.22c3.31,0,6,2.69,6,6S220.5,333.13,217.19,333.13z"
			/>
		<path class="st0" d="M290.03,333.13h-40.98c-3.31,0-6-2.69-6-6s2.69-6,6-6h40.98c3.31,0,6,2.69,6,6S293.34,333.13,290.03,333.13z"
			/>
	</g>
</g>
</svg>
